<svg width="35" height="35" viewBox="0 0 35 35" fill="none" xmlns="http://www.w3.org/2000/svg">
<path d="M18.9583 30.625H5.25C4.76675 30.625 4.375 30.2333 4.375 29.75V5.25C4.375 4.76675 4.76675 4.375 5.25 4.375H29.75C30.2333 4.375 30.625 4.76675 30.625 5.25V18.9583" stroke="black" stroke-width="1.5" stroke-linecap="round" stroke-linejoin="round"/>
<path d="M4.375 23.3333L14.5833 18.9583L22.6042 22.6041" stroke="black" stroke-width="1.5" stroke-linecap="round" stroke-linejoin="round"/>
<path d="M23.3332 14.5833C21.7223 14.5833 20.4165 13.2775 20.4165 11.6667C20.4165 10.0558 21.7223 8.75 23.3332 8.75C24.944 8.75 26.2498 10.0558 26.2498 11.6667C26.2498 13.2775 24.944 14.5833 23.3332 14.5833Z" stroke="black" stroke-width="1.5" stroke-linecap="round" stroke-linejoin="round"/>
<path d="M23.3335 27.7083H27.7085M27.7085 27.7083H32.0835M27.7085 27.7083V23.3333M27.7085 27.7083V32.0833" stroke="black" stroke-width="1.5" stroke-linecap="round" stroke-linejoin="round"/>
</svg>
