<svg width="32" height="32" viewBox="0 0 32 32" fill="none" xmlns="http://www.w3.org/2000/svg">
<path fill-rule="evenodd" clip-rule="evenodd" d="M21.7751 22.2009L26.3375 16.8775C26.5554 16.629 26.6668 16.3152 26.667 15.9998C26.6671 15.784 26.6151 15.5674 26.5094 15.3704C26.4625 15.2826 26.4051 15.1992 26.3375 15.1221L21.7751 9.7987C21.2959 9.23957 20.4542 9.17478 19.8951 9.65398C19.3359 10.1332 19.2711 10.9749 19.7503 11.534L22.4349 14.6664L12.1087 14.6664C11.3723 14.6664 10.7754 15.2633 10.7754 15.9997C10.7754 16.7361 11.3723 17.333 12.1087 17.333L22.435 17.333L19.7503 20.4655C19.2711 21.0247 19.3359 21.8664 19.8951 22.3456C20.4542 22.8248 21.2959 22.76 21.7751 22.2009ZM13.3337 7.99967C14.07 7.99967 14.667 8.59663 14.667 9.33301L14.667 11.333C14.667 12.0694 15.2639 12.6663 16.0003 12.6663C16.7367 12.6663 17.3337 12.0694 17.3337 11.333L17.3337 9.33301C17.3337 7.12387 15.5428 5.33301 13.3337 5.33301L9.33366 5.33301C7.12452 5.33301 5.33366 7.12387 5.33366 9.33301L5.33366 22.6663C5.33366 24.8755 7.12452 26.6663 9.33366 26.6663L13.3337 26.6663C15.5428 26.6663 17.3337 24.8755 17.3337 22.6663L17.3337 20.6663C17.3337 19.93 16.7367 19.333 16.0003 19.333C15.2639 19.333 14.667 19.93 14.667 20.6663L14.667 22.6663C14.667 23.4027 14.07 23.9997 13.3337 23.9997L9.33366 23.9997C8.59728 23.9997 8.00032 23.4027 8.00032 22.6663L8.00032 9.33301C8.00032 8.59663 8.59728 7.99967 9.33366 7.99967L13.3337 7.99967Z" fill="#737791"/>
</svg>
